#!OML:ASF X:\für Bonn\!DataBase\2005_08_10_Bjorn_Final\c3d\bjorn.ASF
:FULLY-SPECIFIED
:DEGREES
109
root -1.67465 18.5536 14.4005 -185.121 19.3325 177.81
lowerback -8.7429 2.81913 0.872576
upperback 7.31263 4.39722 -2.86111
thorax 13.2336 2.48598 -2.71363
lowerneck -6.74226 2.79888 5.9281
upperneck 7.26307 3.70902 -5.88391
head 3.48256 1.76057 -2.56215
rclavicle -8.74653e-015 1.98785e-014
rhumerus 47.3988 22.954 -74.2927
rradius 92.9112
rwrist 35.1711
rhand -50.793 9.39362
rfingers 7.12502
rthumb -23.35 -19.2101
lclavicle -8.74653e-015 1.98785e-014
lhumerus 33.396 -25.2209 84.8206
lradius 84.9933
lwrist 50.279
lhand -48.894 -6.33856
lfingers 7.12502
lthumb -21.5273 22.4851
rfemur 544.753 -168.728 -526.835
rtibia 30.432
rfoot -28.6827 6.04315
rtoes -23.4051
lfemur 339.405 2.64001 348.249
ltibia 35.7012
lfoot -7.2585 -9.9601
ltoes -12.5736
110
root -1.66805 18.5638 14.4264 -184.983 19.4929 177.821
lowerback -8.77514 2.87639 0.926532
upperback 7.25977 4.4559 -2.84436
thorax 13.1988 2.51369 -2.71323
lowerneck -6.86407 2.80185 5.89244
upperneck 6.79477 3.67255 -5.69182
head 3.7288 1.76401 -2.77767
rclavicle 2.68359e-015 -1.43125e-014
rhumerus 47.3849 23.1134 -74.2362
rradius 92.9725
rwrist 35.0634
rhand -51.3842 9.348
rfingers 7.12502
rthumb -23.9171 -19.1825
lclavicle 2.68359e-015 -1.43125e-014
lhumerus 33.2082 -25.5203 84.8634
lradius 85.5649
lwrist 50.3565
lhand -49.0218 -6.76221
lfingers 7.12502
lthumb -21.6499 22.0474
rfemur 544.501 -168.748 -526.745
rtibia 30.4174
rfoot -28.5819 6.23883
rtoes -23.0016
lfemur 339.366 2.32943 348.334
ltibia 35.366
lfoot -6.81314 -10.0698
ltoes -11.8462
111
root -1.66161 18.5752 14.4482 -184.815 19.6892 177.867
lowerback -8.85025 2.9514 1.02984
upperback 7.20286 4.53088 -2.83097
thorax 13.1921 2.55323 -2.73887
lowerneck -6.97189 2.79457 5.90765
upperneck 6.6145 3.65199 -5.77449
head 3.68861 1.74779 -2.80875
rclavicle -4.59193e-014 -1.51076e-014
rhumerus 47.3598 23.2452 -74.2283
rradius 93.0471
rwrist 34.9111
rhand -51.9454 9.36317
rfingers 7.12502
rthumb -24.4552 -19.0958
lclavicle -4.59193e-014 -1.51076e-014
lhumerus 33.0292 -25.8276 84.8685
lradius 86.136
lwrist 50.4516
lhand -49.0923 -7.2812
lfingers 7.12502
lthumb -21.7176 21.5206
rfemur 544.249 -168.76 -526.628
rtibia 30.3834
rfoot -28.4899 6.38853
rtoes -22.838
lfemur 339.325 2.05378 348.455
ltibia 35.0331
lfoot -6.40427 -10.0421
ltoes -11.5289
112
root -1.65541 18.5863 14.4683 -184.628 19.9464 177.918
lowerback -8.94986 3.04152 1.13443
upperback 7.13845 4.62275 -2.80561
thorax 13.1921 2.59913 -2.74742
lowerneck -7.05554 2.79106 5.86337
upperneck 6.44222 3.64166 -5.81869
head 3.64397 1.73731 -2.81459
rclavicle -2.33572e-014 1.19271e-014
rhumerus 47.3727 23.3789 -74.1889
rradius 93.0869
rwrist 34.7515
rhand -52.5102 9.4475
rfingers 7.12502
rthumb -24.9964 -18.9372
lclavicle -2.33572e-014 1.19271e-014
lhumerus 32.8464 -26.1048 84.9178
lradius 86.6659
lwrist 50.5122
lhand -49.1654 -7.95487
lfingers 7.12502
lthumb -21.7879 20.8387
rfemur 543.975 -168.736 -526.532
rtibia 30.3467
rfoot -28.3625 6.67815
rtoes -22.4833
lfemur 339.28 1.8268 348.593
ltibia 34.7033
lfoot -5.98948 -9.93604
ltoes -11.1951
113
root -1.64912 18.5971 14.4871 -184.44 20.2043 177.948
lowerback -9.05281 3.13344 1.23114
upperback 7.07091 4.72126 -2.80001
thorax 13.1928 2.64898 -2.77151
lowerneck -7.15619 2.77822 5.83247
upperneck 6.26887 3.61595 -5.85697
head 3.60154 1.71962 -2.82174
rclavicle 1.41137e-014 -3.4191e-014
rhumerus 47.4185 23.4873 -74.1862
rradius 93.0717
rwrist 34.6495
rhand -53.0694 9.56695
rfingers 7.12502
rthumb -25.5322 -18.7421
lclavicle 1.41137e-014 -3.4191e-014
lhumerus 32.704 -26.3808 84.8938
lradius 87.1943
lwrist 50.6623
lhand -49.2213 -8.62252
lfingers 7.12502
lthumb -21.8415 20.1649
rfemur 543.701 -168.719 -526.46
rtibia 30.3038
rfoot -28.225 7.01213
rtoes -22.0574
lfemur 339.225 1.69669 348.712
ltibia 34.3814
lfoot -5.57674 -9.83247
ltoes -10.6946
114
root -1.64244 18.608 14.5041 -184.252 20.4783 178.005
lowerback -9.14962 3.23067 1.33829
upperback 6.997 4.82064 -2.77217
thorax 13.1811 2.69795 -2.77712
lowerneck -7.24191 2.76456 5.74867
upperneck 6.13309 3.59605 -5.86967
head 3.56721 1.70524 -2.80994
rclavicle 3.93594e-014 2.62396e-014
rhumerus 47.4807 23.5951 -74.1584
rradius 92.9917
rwrist 34.5465
rhand -53.5859 9.73452
rfingers 7.12502
rthumb -26.0269 -18.5028
lclavicle 3.93594e-014 2.62396e-014
lhumerus 32.5972 -26.6451 84.8601
lradius 87.6682
lwrist 50.6694
lhand -49.3049 -9.14666
lfingers 7.12502
lthumb -21.9218 19.6313
rfemur 543.432 -168.599 -526.399
rtibia 30.2744
rfoot -28.0714 7.37797
rtoes -21.7275
lfemur 339.185 1.67765 348.849
ltibia 34.0629
lfoot -5.18164 -9.74632
ltoes -10.6348
115
root -1.63448 18.6181 14.5202 -184.063 20.7544 178.031
lowerback -9.25861 3.32939 1.40116
upperback 6.91565 4.93073 -2.76059
thorax 13.1669 2.74892 -2.7728
lowerneck -7.33438 2.74679 5.7042
upperneck 6.01194 3.568 -5.89413
head 3.54047 1.68741 -2.81032
rclavicle 3.78685e-014 -4.13472e-014
rhumerus 47.5654 23.6762 -74.1555
rradius 92.8707
rwrist 34.4543
rhand -54.0151 10.0714
rfingers 7.12502
rthumb -26.4378 -18.1048
lclavicle 3.78685e-014 -4.13472e-014
lhumerus 32.5312 -26.9087 84.7631
lradius 88.1092
lwrist 50.5765
lhand -49.3916 -9.48218
lfingers 7.12502
lthumb -22.005 19.286
rfemur 543.156 -168.497 -526.359
rtibia 30.2504
rfoot -27.936 7.77318
rtoes -21.4227
lfemur 339.133 1.75009 348.959
ltibia 33.7548
lfoot -4.77897 -9.69138
ltoes -10.511
116
root -1.6271 18.6266 14.5351 -183.891 21.0114 178.036
lowerback -9.35669 3.42093 1.44206
upperback 6.83366 5.0349 -2.75066
thorax 13.143 2.79539 -2.75962
lowerneck -7.39153 2.72154 5.65714
upperneck 5.88794 3.53383 -5.93384
head 3.50589 1.66678 -2.81593
rclavicle -2.47487e-014 2.94201e-014
rhumerus 47.6934 23.7321 -74.138
rradius 92.6699
rwrist 34.4328
rhand -54.3972 10.338
rfingers 7.12502
rthumb -26.8035 -17.7827
lclavicle -2.47487e-014 2.94201e-014
lhumerus 32.5126 -27.1708 84.6372
lradius 88.4677
lwrist 50.2904
lhand -49.5284 -9.59065
lfingers 7.12502
lthumb -22.1364 19.1621
rfemur 542.89 -168.323 -526.367
rtibia 30.2399
rfoot -27.7786 8.24105
rtoes -21.0301
lfemur 339.095 1.79302 349.046
ltibia 33.4537
lfoot -4.412 -9.59172
ltoes -10.1942
117
root -1.6191 18.635 14.5489 -183.738 21.2589 178.032
lowerback -9.43883 3.49201 1.45428
upperback 6.75892 5.1155 -2.73306
thorax 13.1121 2.82807 -2.72758
lowerneck -7.4711 2.7084 5.55384
upperneck 5.77756 3.51687 -5.91885
head 3.47805 1.65507 -2.79085
rclavicle -1.21259e-014 7.95139e-016
rhumerus 47.8541 23.8057 -74.1176
rradius 92.3749
rwrist 34.3866
rhand -54.7491 10.7559
rfingers 7.12502
rthumb -27.1402 -17.3127
lclavicle -1.21259e-014 7.95139e-016
lhumerus 32.5374 -27.3515 84.5093
lradius 88.7414
lwrist 49.8998
lhand -49.6505 -9.57423
lfingers 7.12502
lthumb -22.2536 19.1645
rfemur 542.641 -168.126 -526.396
rtibia 30.2421
rfoot -27.6489 8.75759
rtoes -20.5563
lfemur 339.073 1.90298 349.121
ltibia 33.1583
lfoot -4.08196 -9.47998
ltoes -10.0376
118
root -1.61044 18.6427 14.561 -183.597 21.5147 177.988
lowerback -9.5207 3.57549 1.41514
upperback 6.66905 5.2192 -2.7143
thorax 13.0597 2.86639 -2.66094
lowerneck -7.51092 2.67029 5.42814
upperneck 5.66818 3.47405 -5.92994
head 3.44134 1.63018 -2.77223
rclavicle -3.98563e-014 5.40694e-014
rhumerus 48.0411 23.862 -74.0628
rradius 91.9823
rwrist 34.3315
rhand -55.0655 11.1684
rfingers 7.12502
rthumb -27.4428 -16.8526
lclavicle -3.98563e-014 5.40694e-014
lhumerus 32.6143 -27.5426 84.3908
lradius 88.8677
lwrist 49.3874
lhand -49.7729 -9.33895
lfingers 7.12502
lthumb -22.3711 19.3858
rfemur 542.388 -167.894 -526.475
rtibia 30.2634
rfoot -27.4944 9.30501
rtoes -19.9996
lfemur 339.069 2.00377 349.159
ltibia 32.8605
lfoot -3.79833 -9.23238
ltoes -10.0006
119
root -1.60177 18.6491 14.5733 -183.461 21.7379 177.929
lowerback -9.61588 3.63138 1.32905
upperback 6.59408 5.29341 -2.68847
thorax 13.0248 2.88683 -2.56543
lowerneck -7.55628 2.63043 5.23252
upperneck 5.54327 3.4288 -5.86329
head 3.39562 1.60516 -2.71338
rclavicle 4.42296e-014 7.15625e-015
rhumerus 48.3348 23.9117 -73.9638
rradius 91.4383
rwrist 34.3323
rhand -55.3372 11.4607
rfingers 7.12502
rthumb -27.7026 -16.5188
lclavicle 4.42296e-014 7.15625e-015
lhumerus 32.7384 -27.6485 84.261
lradius 88.9239
lwrist 48.8579
lhand -49.917 -8.92631
lfingers 7.12502
lthumb -22.5094 19.7817
rfemur 542.133 -167.629 -526.569
rtibia 30.2977
rfoot -27.3635 9.85714
rtoes -19.636
lfemur 339.067 2.11703 349.176
ltibia 32.5627
lfoot -3.58789 -8.96056
ltoes -10.1345
120
root -1.59316 18.6554 14.5839 -183.345 21.9825 177.835
lowerback -9.69758 3.69838 1.23244
upperback 6.50916 5.38787 -2.68764
thorax 12.9731 2.91788 -2.48808
lowerneck -7.58606 2.57507 5.06509
upperneck 5.43642 3.36319 -5.81527
head 3.35356 1.57049 -2.66782
rclavicle 4.20927e-014 -3.18055e-015
rhumerus 48.6545 23.8998 -73.9002
rradius 90.7692
rwrist 34.4036
rhand -55.5693 11.7567
rfingers 7.12502
rthumb -27.9246 -16.1869
lclavicle 4.20927e-014 -3.18055e-015
lhumerus 32.9101 -27.7254 84.1308
lradius 88.8664
lwrist 48.3541
lhand -50.1123 -8.14182
lfingers 7.12502
lthumb -22.6968 20.5434
rfemur 541.875 -167.39 -526.698
rtibia 30.3473
rfoot -27.2474 10.3801
rtoes -19.2809
lfemur 339.105 2.16427 349.172
ltibia 32.2611
lfoot -3.44933 -8.61734
ltoes -10.1953
